<?xml version="1.0" encoding="UTF-8"?>
<svg xmlns="http://www.w3.org/2000/svg" version="1.1" viewBox="0 0 256.93 251.87">
  <defs>
    <style>
      .cls-1 {
        fill: #070707;
      }
    </style>
  </defs>
  <!-- Generator: Adobe Illustrator 28.6.0, SVG Export Plug-In . SVG Version: 1.2.0 Build 709)  -->
  <g>
    <g id="Layer_1">
      <path d="M-31.38,458.03c.02.14.04.29.06.43,0-.12-.03-.27-.06-.43Z"/>
      <path d="M36.9-314.93c0-.19,0-.37.01-.53,0,.18,0,.35-.01.53Z"/>
      <path d="M35.28-572.16c0,.15,0,.32,0,.47.01-.13.01-.29,0-.47Z"/>
      <path d="M121.93-993.99c-.43-1.07-.93-2.3-1.43-3.54.46,1.22.94,2.44,1.43,3.54Z"/>
      <path class="cls-1" d="M107.13,17.03l.1-.2c-4.13.19-13.5,1.06-20.31,1.24l.27-.5c-5.69.58-16.39.45-20.48.54-9.36-.13-23.78-.88-36.28-.12l-9.25-.22c-10.93-.25-17.03,12.81-9.97,21.34-1.33-1.51-2.64-3.01-2.97-3.54.13.59,2.65,3.63,4.18,5.06l.75-.21c3.4,3.42.46,1.11,3.63,4.59-.24.55-3.23-2.57-5.81-5.36,2.25,2.6,4.24,5.4,5.6,6.04,1.93,2.61-.74.2,1.61,3.3,1.91,1.99,4.73,4.34,6.51,7.01l-.11.02c2.23,3.17,4.27,5.31,6.25,7.39,1.98,2.08,3.84,4.16,5.81,7.11l-.61-.48c.65,1.08,1.81,2.52,3.13,4.15,1.29,1.66,2.72,3.54,3.94,5.44-.68-1.09-1.04-2.24.65-.12,1.4,2.19,2.74,3.9,3.9,5.55,1.16,1.64,2.21,3.14,3.14,4.8l2.56,2.63c1.33,1.82,3.03,4.4,5.16,7.45,1.05,1.54,2.22,3.17,3.41,4.96,1.19,1.79,2.44,3.68,3.75,5.67,2.68,3.93,5.4,8.34,8.3,12.88,1.46,2.26,2.83,4.64,4.29,7,1.42,2.39,2.93,4.75,4.3,7.19,1.4,2.43,2.8,4.86,4.19,7.26,1.4,2.39,2.68,4.83,3.99,7.19,1.29,2.37,2.61,4.66,3.78,6.96,1.19,2.27,2.34,4.49,3.45,6.6.55,1.06,1.09,2.1,1.62,3.11.5,1.02.99,2.02,1.47,2.98.98,1.99,1.89,3.85,2.74,5.57.41.83.8,1.63,1.18,2.43.36.78.72,1.54,1.07,2.3.68,1.52,1.33,2.97,1.93,4.33,1.22,2.72,2.28,5.13,3.19,7.16l-.62-1.18c2.09,4.72,4.46,9.9,6.93,15.62l1.03,2.36c2.77,6.37,11.59,6.4,14.4.05l1.78-4.02c3.18-7.06,6.48-14.36,9.84-21.79.84-1.87,1.67-3.68,2.57-5.52.62-1.25,1.23-2.51,1.86-3.76.94-1.91,1.88-3.82,2.82-5.74,1.92-3.82,3.93-7.62,5.86-11.4,7.91-15.03,16.21-29.01,22.25-38.93,1.44-1.71,2.9-3.9,4.45-6.07,1.52-2.18,3.03-4.4,4.38-6.27-1.62,2-1.44,1.05-.3-.61,1.95-2.92,3.03-4.4,3.55-5.22.53-.82.56-.95.58-1.09.05-.29.07-.62,4.07-6.52,1.74-2.5,4.43-6.29,7.79-10.84,1.72-2.23,3.59-4.67,5.55-7.24.5-.64,1-1.29,1.51-1.95.52-.65,1.05-1.3,1.58-1.96,1.06-1.31,2.16-2.66,3.26-4.02,1.11-1.36,2.22-2.75,3.37-4.13,1.16-1.36,2.34-2.73,3.51-4.12l1.77-2.07c1.02-1.19,2.11-2.51,3.18-3.7,2.14-2.44,4.43-4.88,6.63-7.31,4.44-4.84,8.8-9.7,13.08-14.26l.13-.13c4.71-5.05,1.36-13.42-5.46-13.64-6.91-.22-12.51-.4-16.27-.53-3.71.14-7.47.17-11.3.16-1.91-.02-3.85-.04-5.79-.05-1.28-.02-2.57-.04-3.85-.06-4.4-.08-8.78-.19-12.63,0l.78-.18c-7.02.12-41.71-1.09-57.99-1.39"/>
    </g>
  </g>
</svg>