<?xml version="1.0" encoding="UTF-8"?>
<svg xmlns="http://www.w3.org/2000/svg" version="1.1" viewBox="0 0 615 382">
  <defs>
    <style>
      .cls-1 {
        fill: #90c;
        fill-rule: evenodd;
        stroke: #93c;
        stroke-miterlimit: 10;
        stroke-width: 34px;
      }
    </style>
  </defs>
  <!-- Generator: Adobe Illustrator 28.6.0, SVG Export Plug-In . SVG Version: 1.2.0 Build 709)  -->
  <g>
    <g id="Layer_1">
      <g id="Layer_1-2" data-name="Layer_1">
        <path class="cls-1" d="M309.5,283.7c-2,0-3.8-.8-5-2L81.2,40.8c-3.7-4-9.1-6.6-15.3-7.3-6.2-.8-12.3.5-17.3,3.4s-8.3,7.3-9.2,12.2c-.9,4.9.6,9.8,4.3,13.8l247.1,266.6c.3.3.5.6.6.9,3.7,3.6,8.8,5.9,14.6,6.6,6.2.7,12.4-.5,17.4-3.5,2.6-1.5,4.7-3.4,6.3-5.6,0-.2.2-.3.4-.4L574.6,62.3c7.6-8.2,5.4-19.9-5-26-10.4-6-24.9-4.3-32.5,4l-222.6,241.4c-1.1,1.3-3,2-4.9,2h0ZM555.8,23c7.3,0,14.7,1.8,21.1,5.5,7.6,4.5,12.7,11.1,14.1,18.6,1.4,7.5-.9,15-6.5,21.1l-244.3,264.8c-2.4,3.3-5.6,6-9.4,8.3-7.7,4.5-17.1,6.4-26.6,5.3-9.4-1.1-17.8-5.1-23.4-11.3-.3-.3-.5-.6-.7-1L33.9,68.6h0c-5.6-6.1-8-13.6-6.6-21.1s6.4-14.1,14.1-18.6c15.8-9.3,38.1-6.6,49.8,6l218.3,235.6,217.7-236c7-7.6,17.7-11.6,28.7-11.6h-.1Z"/>
      </g>
    </g>
  </g>
</svg>