<?xml version="1.0" encoding="UTF-8"?>
<svg xmlns="http://www.w3.org/2000/svg" version="1.1" viewBox="0 0 256.9 251.9">
  <defs>
    <style>
      .cls-1 {
        fill: #f7f2f2;
      }

      .cls-1, .cls-2 {
        stroke: #070606;
        stroke-miterlimit: 10;
        stroke-width: 3px;
      }
    </style>
  </defs>
  <!-- Generator: Adobe Illustrator 28.6.0, SVG Export Plug-In . SVG Version: 1.2.0 Build 709)  -->
  <g>
    <g id="Layer_1">
      <g id="Layer_1-2" data-name="Layer_1">
        <path class="cls-2" d="M-31.4,458c0,.1,0,.3,0,.4,0-.1,0-.3,0-.4Z"/>
        <path class="cls-2" d="M36.9-314.9c0-.2,0-.4,0-.5,0,.2,0,.4,0,.5Z"/>
        <path class="cls-2" d="M35.3-572.2v.5c0-.1,0-.3,0-.5Z"/>
        <path class="cls-2" d="M121.9-994c-.4-1.1-.9-2.3-1.4-3.5.5,1.2.9,2.4,1.4,3.5Z"/>
        <path class="cls-1" d="M107.1,17v-.2c-4,.2-13.4,1.1-20.2,1.2l.3-.5c-5.7.6-16.4.5-20.5.5-9.4-.1-23.8-.9-36.3-.1l-9.2-.2c-10.9-.2-17,12.8-10,21.3-1.3-1.5-2.6-3-3-3.5.1.6,2.6,3.6,4.2,5.1l.8-.2c3.4,3.4.5,1.1,3.6,4.6-.2.5-3.2-2.6-5.8-5.4,2.2,2.6,4.2,5.4,5.6,6,1.9,2.6-.7.2,1.6,3.3,1.9,2,4.7,4.3,6.5,7h-.1c2.2,3.2,4.3,5.3,6.2,7.4,2,2.1,3.8,4.2,5.8,7.1l-.6-.5c.7,1.1,1.8,2.5,3.1,4.2,1.3,1.7,2.7,3.5,3.9,5.4-.7-1.1-1-2.2.7-.1,1.4,2.2,2.7,3.9,3.9,5.6,1.2,1.6,2.2,3.1,3.1,4.8l2.6,2.6c1.3,1.8,3,4.4,5.2,7.4,1,1.5,2.2,3.2,3.4,5s2.4,3.7,3.8,5.7c2.7,3.9,5.4,8.3,8.3,12.9,1.5,2.3,2.8,4.6,4.3,7,1.4,2.4,2.9,4.8,4.3,7.2,1.4,2.4,2.8,4.9,4.2,7.3,1.4,2.4,2.7,4.8,4,7.2,1.3,2.4,2.6,4.7,3.8,7,1.2,2.3,2.3,4.5,3.4,6.6.6,1.1,1.1,2.1,1.6,3.1.5,1,1,2,1.5,3,1,2,1.9,3.9,2.7,5.6.4.8.8,1.6,1.2,2.4.4.8.7,1.5,1.1,2.3.7,1.5,1.3,3,1.9,4.3,1.2,2.7,2.3,5.1,3.2,7.2l-.6-1.2c2.1,4.7,4.5,9.9,6.9,15.6l1,2.4c2.8,6.4,11.6,6.4,14.4,0l1.8-4c3.2-7.1,6.5-14.4,9.8-21.8.8-1.9,1.7-3.7,2.6-5.5.6-1.2,1.2-2.5,1.9-3.8.9-1.9,1.9-3.8,2.8-5.7,1.9-3.8,3.9-7.6,5.9-11.4,7.9-15,16.2-29,22.2-38.9,1.4-1.7,2.9-3.9,4.4-6.1,1.5-2.2,3-4.4,4.4-6.3-1.6,2-1.4,1.1-.3-.6,1.9-2.9,3-4.4,3.6-5.2.5-.8.6-.9.6-1.1,0-.3,0-.6,4.1-6.5,1.7-2.5,4.4-6.3,7.8-10.8,1.7-2.2,3.6-4.7,5.6-7.2.5-.6,1-1.3,1.5-1.9.5-.7,1.1-1.3,1.6-2,1.1-1.3,2.2-2.7,3.3-4,1.1-1.4,2.2-2.8,3.4-4.1,1.2-1.4,2.3-2.7,3.5-4.1l1.8-2.1c1-1.2,2.1-2.5,3.2-3.7,2.1-2.4,4.4-4.9,6.6-7.3,4.4-4.8,8.8-9.7,13.1-14.3h.1c4.7-5.2,1.4-13.5-5.5-13.8-6.9-.2-12.5-.4-16.3-.5-3.7.1-7.5.2-11.3.2-1.9,0-3.9,0-5.8,0-1.3,0-2.6,0-3.9,0-4.4,0-8.8-.2-12.6,0l.8-.2c-7,.1-41.7-1.1-58-1.4"/>
      </g>
    </g>
  </g>
</svg>