<?xml version="1.0" encoding="UTF-8"?>
<svg xmlns="http://www.w3.org/2000/svg" version="1.1" viewBox="0 0 3873 3873">
  <defs>
    <style>
      .cls-1 {
        fill: #fffffe;
      }

      .cls-1, .cls-2, .cls-3 {
        fill-rule: evenodd;
      }

      .cls-2 {
        fill: #72ce36;
      }

      .cls-3 {
        fill: #f0f0f0;
      }
    </style>
  </defs>
  <!-- Generator: Adobe Illustrator 28.6.0, SVG Export Plug-In . SVG Version: 1.2.0 Build 709)  -->
  <g>
    <g id="Layer_1">
      <g>
        <path class="cls-3" d="M84.1,998.2l1588.1,2147.1c3.2,5.5,6.7,10.9,10.6,16.2,57,76.9,140.4,127,235,141.1,17.8,2.7,36,4.1,54,4,76.8,0,150.3-24.4,212-70.2,36.4-26.8,66.9-59.8,90.8-98l1476-2005.1c56.5-76.9,79.6-171.2,65.3-265.6-14.4-94.4-64.7-177.4-141.7-233.9-48.9-36-105.2-58.5-164.6-66.3v-3.1s-94.6.1-94.6.1v3.2c-95.4,12.9-182.9,64.1-240.4,142.4l-1204.5,1636.3L762.1,712.8c-67.2-90.9-174.9-145.1-288.3-145-76.7,0-149.9,24.2-211.5,69.8-76.8,56.8-126.9,139.9-141.1,234.3-5.5,36.6-5.4,73,.2,108.8l-37.3,17.4Z"/>
        <path class="cls-1" d="M156.5,1016.5l1555.4,2102.9c2.7,4.7,5.7,9.4,9,13.9,49.5,66.7,121.9,110.4,203.9,122.6,15.5,2.4,31.3,3.5,46.9,3.4,66.7,0,130.4-21.1,184-61,32.1-23.6,58.8-52.7,79.7-86.5l1477-2006.4c49-66.8,69.1-148.6,56.6-230.5-12.5-81.9-56.1-153.9-122.8-203-53.6-39.4-117.2-60.3-183.8-60.2h0v94.6c.1,0,0-94.6,0-94.6-98.3.1-191.6,47.3-249.8,126.4l-1242.4,1687.9L724.2,741c-58.3-78.9-151.7-125.9-250-125.8h0c-66.5,0-130,21-183.5,60.6-66.6,49.3-110.2,121.4-122.5,203.2-6.6,43.7-3.8,87.3,7.5,128.7l-19.2,8.8Z"/>
        <path class="cls-2" d="M1970.6,2685.4c-11.9,0-23-5.7-30-15.3L588,841.4c-22.3-30.3-55.3-50.1-92.4-55.7-37.3-5.7-74.4,3.6-104.7,25.9-30.3,22.3-50,55.3-55.7,92.4-5.6,37.3,3.6,74.4,26,104.6l1496.3,2023.1c1.6,2.1,2.8,4.3,3.9,6.6,22.3,27.1,53.5,44.7,88.5,50,37.5,5.6,74.9-3.7,105.4-26.3,15.6-11.5,28.4-25.8,38.3-42.5.6-1.2,1.4-2.3,2.2-3.3l1480.3-2011c45.9-62.6,32.5-150.8-30.1-197-62.7-45.9-150.9-32.4-197.1,30.1l-1348.4,1831.9c-6.9,9.5-18.1,15.1-29.9,15.1h0ZM3462.5,706.3c44.4,0,89.2,13.5,127.6,41.8,46.3,34,76.7,84.2,85.5,141.1s-5.3,113.9-39.3,160.2l-1479.4,2009.8c-14.8,24.7-33.9,45.9-57.2,63.1-46.5,34.5-103.5,48.6-160.9,40.1-57.1-8.5-107.6-38.9-142-85.4-1.7-2.4-3.1-4.8-4.2-7.5L301.2,1053.1h0c-34.2-46.3-48.3-103.2-39.8-160.2,8.5-56.9,38.8-107.1,85.1-141.3,95.6-70.5,230.8-50.3,301.5,45.4l1322.4,1788.2,1318.5-1791.1c42.1-57.3,107.5-87.7,173.6-87.8Z"/>
      </g>
    </g>
  </g>
</svg>