<?xml version="1.0" encoding="UTF-8"?>
<svg xmlns="http://www.w3.org/2000/svg" version="1.1" viewBox="0 0 617 390">
  <defs>
    <style>
      .cls-1, .cls-2 {
        fill: #390;
      }

      .cls-2 {
        fill-rule: evenodd;
        stroke: #3c0;
        stroke-miterlimit: 10;
        stroke-width: 6px;
      }
    </style>
  </defs>
  <!-- Generator: Adobe Illustrator 28.6.0, SVG Export Plug-In . SVG Version: 1.2.0 Build 709)  -->
  <g>
    <g id="Layer_1">
      <g id="Layer_1-2" data-name="Layer_1">
        <path class="cls-2" d="M322.9,301.5c-1.7,0-3.2-.8-4.3-2L128.1,58.6c-3.2-4-7.8-6.6-13.1-7.3-5.3-.8-10.5.5-14.8,3.4s-7.1,7.3-7.9,12.2c-.8,4.9.5,9.8,3.7,13.8l210.9,266.6c.3.3.4.6.5.9,3.2,3.6,7.5,5.9,12.5,6.6,5.3.7,10.6-.5,14.8-3.5,2.2-1.5,4-3.4,5.4-5.6,0-.2.2-.3.3-.4l208.7-265.2c6.5-8.2,4.6-19.9-4.3-26-8.9-6-21.3-4.3-27.7,4l-190,241.4c-.9,1.3-2.6,2-4.2,2h0ZM533.1,40.8c6.2,0,12.5,1.8,18,5.5,6.5,4.5,10.8,11.1,12,18.6,1.2,7.5-.8,15-5.5,21.1l-208.5,264.8c-2,3.3-4.8,6-8,8.3-6.6,4.5-14.6,6.4-22.7,5.3-8-1.1-15.2-5.1-20-11.3-.3-.3-.4-.6-.6-1L87.7,86.4h0c-4.8-6.1-6.8-13.6-5.6-21.1s5.5-14.1,12-18.6c13.5-9.3,32.5-6.6,42.5,6l186.3,235.6L508.7,52.3c6-7.6,15.1-11.6,24.5-11.6h0Z"/>
      </g>
      <rect class="cls-1" x="246.4" y="188.9" width="362.6" height="27.6" rx="8.5" ry="8.5" transform="translate(850.9 -9.2) rotate(128)"/>
      <rect class="cls-1" x="36.1" y="188.9" width="364.5" height="27.6" rx="8.5" ry="8.5" transform="translate(242.4 -94.3) rotate(51.8)"/>
    </g>
  </g>
</svg>